<svg width="10" height="13" viewBox="0 0 10 13" fill="none" xmlns="http://www.w3.org/2000/svg">
<path id="Union" fill-rule="evenodd" clip-rule="evenodd" d="M5.03649 3.10868C3.76122 3.10949 2.03248 3.33317 0.991821 3.48736C0.518466 3.55749 0.0869141 3.19267 0.0869141 2.71415C0.0869141 2.33909 0.356296 2.01899 0.727016 1.96208C1.43505 1.85338 2.62562 1.68617 3.75523 1.59965C3.85345 0.97652 4.39288 0.5 5.04361 0.5C5.69434 0.5 6.23378 0.976533 6.33199 1.59967C7.46149 1.6862 8.65189 1.85339 9.35985 1.96208C9.73058 2.01899 9.99996 2.33909 9.99996 2.71415C9.99996 3.19267 9.56841 3.55749 9.09505 3.48736C8.05447 3.33319 6.32593 3.10952 5.05069 3.10868C5.04833 3.10869 5.04597 3.1087 5.04361 3.1087C5.04123 3.1087 5.03886 3.10869 5.03649 3.10868ZM4.10328 10.413C3.75395 10.413 3.46677 10.1375 3.45223 9.78851L3.24566 4.83085C3.23024 4.46066 3.52619 4.15212 3.89671 4.15212C4.24603 4.15212 4.53321 4.42758 4.54775 4.7766L4.75432 9.73425C4.76974 10.1044 4.47379 10.413 4.10328 10.413ZM1.65227 12.5L0.608789 4.15217H2.17401L3.02183 10.9348H7.0646L7.91242 4.15217H9.47764L8.43515 12.4921V12.5H8.43416H6.86895H3.21748H1.65254H1.65227ZM5.33316 9.73425C5.31774 10.1044 5.61369 10.413 5.98421 10.413C6.33353 10.413 6.62071 10.1375 6.63525 9.78851L6.84182 4.83085C6.85724 4.46066 6.56129 4.15212 6.19078 4.15212C5.84145 4.15212 5.55427 4.42758 5.53973 4.7766L5.33316 9.73425Z" fill="#1C1A1A" fill-opacity="0.5"/>
</svg>
