<svg width="11" height="13" viewBox="0 0 11 13" fill="none" xmlns="http://www.w3.org/2000/svg">
<g id="Group 163">
<path id="Union" d="M6.24155 6.36765L7.54468 5.06452C7.8642 4.745 8.38225 4.745 8.70177 5.06452C9.02129 5.38404 9.02129 5.90208 8.70177 6.2216L6.00191 8.92146C5.68239 9.24098 5.16435 9.24098 4.84483 8.92146L2.14497 6.2216C1.82545 5.90208 1.82545 5.38404 2.14497 5.06452C2.46449 4.745 2.98253 4.745 3.30205 5.06452L4.60519 6.36767L4.60519 1.31819C4.60519 0.866322 4.97151 0.50001 5.42337 0.50001C5.87524 0.50001 6.24155 0.866322 6.24155 1.31819L6.24155 6.36765Z" fill="#1C1A1A" fill-opacity="0.5"/>
<path id="Union_2" fill-rule="evenodd" clip-rule="evenodd" d="M0.814453 10.8636L0.814453 8.13637H2.45081V10.8636H8.45081V8.13637H10.0872V12.5H8.99626H8.45081H2.45081H0.814453L0.814453 10.8636Z" fill="#1C1A1A" fill-opacity="0.5"/>
</g>
</svg>
