<svg width="87" height="77" viewBox="0 0 87 77" fill="none" xmlns="http://www.w3.org/2000/svg">
<path d="M14.1292 1.99667C15.402 0.718518 17.1314 0 18.9352 0H67.6799C69.4743 0 71.1951 0.711071 72.466 1.9768C72.4726 1.98343 72.4793 1.99008 72.4859 1.99675L84.5875 14.1501C84.5939 14.1565 84.6003 14.163 84.6067 14.1695C86.909 16.5 87.2154 20.1429 85.338 22.8247L48.8037 74.1909C46.0881 77.9504 40.474 77.9363 37.7801 74.1487L1.30624 22.8667C-0.609234 20.1736 -0.304714 16.4919 2.02721 14.1501L14.1292 1.99667Z" fill="#7FFC68"/>
<path fill-rule="evenodd" clip-rule="evenodd" d="M68.0303 6.43044C67.9373 6.33778 67.8113 6.28571 67.6799 6.28571H18.9352C18.8031 6.28571 18.6765 6.33833 18.5833 6.43191L6.48129 18.5853C6.31055 18.7568 6.28825 19.0264 6.4285 19.2236L42.9024 70.5055C42.9693 70.5996 43.0278 70.6395 43.075 70.6631C43.1327 70.6921 43.2118 70.714 43.3051 70.7143C43.3984 70.7146 43.4781 70.6932 43.5366 70.6644C43.5829 70.6416 43.6384 70.6043 43.7015 70.5196L80.1943 19.2117C80.325 19.0167 80.3008 18.7548 80.135 18.5869L80.1333 18.5853L68.0318 6.43192L68.0303 6.43044ZM85.338 22.8247L48.8037 74.1909C46.0881 77.9504 40.474 77.9363 37.7801 74.1487L1.30624 22.8667C-0.609234 20.1736 -0.304714 16.4919 2.02721 14.1501L14.1292 1.99667C15.402 0.718518 17.1314 0 18.9352 0H67.6799C69.4743 0 71.1951 0.711071 72.466 1.9768L72.4859 1.99675L84.5875 14.1501L84.6067 14.1695C86.909 16.5 87.2154 20.1429 85.338 22.8247Z" fill="#53B753"/>
<path d="M14.1292 1.99667C15.402 0.718518 17.1314 0 18.9352 0H34.9677L53.2688 18.2042H86.5242C86.6962 19.7918 86.3096 21.4369 85.338 22.8247L48.8037 74.1909C46.0881 77.9504 40.474 77.9363 37.7801 74.1487L1.30624 22.8667C-0.609234 20.1736 -0.304714 16.4919 2.02721 14.1501L14.1292 1.99667Z" fill="#53B753"/>
</svg>
