<svg width="56" height="49" viewBox="0 0 56 49" fill="none" xmlns="http://www.w3.org/2000/svg">
<path d="M8.959 1.27061C9.76893 0.457238 10.8695 0 12.0174 0H43.0367C44.1786 0 45.2737 0.4525 46.0824 1.25796C46.0866 1.26218 46.0909 1.26642 46.0951 1.27066L53.7961 9.0046C53.8002 9.0087 53.8042 9.01282 53.8083 9.01693C55.2734 10.5 55.4684 12.8182 54.2737 14.5248L31.0246 47.2124C29.2965 49.6048 25.7239 49.5958 24.0096 47.1855L0.79893 14.5516C-0.420009 12.8377 -0.226224 10.4949 1.25773 9.00461L8.959 1.27061Z" fill="#7FFC68"/>
<path d="M8.959 1.27061C9.76893 0.457238 10.8695 0 12.0174 0H22.2199L33.866 11.5845H55.0285C55.138 12.5948 54.8919 13.6417 54.2736 14.5249L31.0247 47.2122C29.2966 49.6048 25.7239 49.5959 24.0096 47.1855L0.79893 14.5516C-0.420009 12.8377 -0.226224 10.4949 1.25773 9.00461L8.959 1.27061Z" fill="#53B753"/>
</svg>
