<svg width="92" height="93" viewBox="0 0 92 93" fill="none" xmlns="http://www.w3.org/2000/svg">
<g id="Group 162">
<path id="Rectangle 144" d="M1 31.7489L31.2282 1.52069H61.4564L1 61.9771V31.7489Z" fill="#53B753"/>
<g id="FREE">
<path d="M13.9626 42.4856L5.25732 33.7803L11.0212 28.0165L12.5386 29.5339L8.61532 33.4573L10.6896 35.5316L14.2304 31.9908L15.7479 33.5083L12.2071 37.049L15.8031 40.6451L13.9626 42.4856Z" fill="#F9F9F9"/>
<path d="M20.9644 35.4837L12.2592 26.7785L15.6937 23.344C16.3511 22.6865 17.0298 22.243 17.7297 22.0135C18.4297 21.7783 19.1154 21.7528 19.787 21.937C20.4586 22.1155 21.082 22.4924 21.6573 23.0677C22.2354 23.6458 22.608 24.2678 22.7752 24.9337C22.9396 25.5968 22.8956 26.2755 22.6434 26.9697C22.3941 27.6612 21.935 28.3413 21.2662 29.01L18.9667 31.3096L17.4874 29.8304L19.4895 27.8284C19.8409 27.477 20.0846 27.1369 20.2206 26.8082C20.3566 26.4795 20.3849 26.1621 20.3056 25.8561C20.2291 25.5472 20.0477 25.2497 19.7615 24.9634C19.4725 24.6744 19.1707 24.4888 18.8561 24.4066C18.5444 24.3216 18.22 24.3457 17.8827 24.4789C17.5455 24.6064 17.1998 24.8473 16.8456 25.2015L15.6044 26.4427L22.805 33.6432L20.9644 35.4837ZM21.7041 26.821L27.8292 28.619L25.7974 30.6508L19.719 28.806L21.7041 26.821Z" fill="#F9F9F9"/>
<path d="M28.8196 27.6286L20.1143 18.9233L25.9802 13.0574L27.4977 14.5749L23.4723 18.6003L25.5466 20.6746L29.2702 16.951L30.7876 18.4685L27.0641 22.192L29.1426 24.2706L33.185 20.2282L34.7025 21.7457L28.8196 27.6286Z" fill="#F9F9F9"/>
<path d="M36.1487 20.2994L27.4435 11.5942L33.3093 5.72831L34.8268 7.24578L30.8015 11.2711L32.8758 13.3454L36.5993 9.62188L38.1168 11.1394L34.3932 14.8629L36.4718 16.9415L40.5141 12.8991L42.0316 14.4166L36.1487 20.2994Z" fill="#F9F9F9"/>
</g>
</g>
</svg>
