<svg width="362" height="77" viewBox="0 0 362 77" fill="none" xmlns="http://www.w3.org/2000/svg">
<path d="M14.1292 1.99667C15.402 0.718518 17.1314 0 18.9352 0H67.6799C69.4743 0 71.1951 0.711071 72.466 1.9768C72.4726 1.98343 72.4793 1.99008 72.4859 1.99675L84.5875 14.1501C84.5939 14.1565 84.6003 14.163 84.6067 14.1695C86.909 16.5 87.2154 20.1429 85.338 22.8247L48.8037 74.1909C46.0881 77.9504 40.474 77.9363 37.7801 74.1487L1.30624 22.8667C-0.609234 20.1736 -0.304714 16.4919 2.02721 14.1501L14.1292 1.99667Z" fill="#7FFC68"/>
<path fill-rule="evenodd" clip-rule="evenodd" d="M68.0303 6.43044C67.9373 6.33778 67.8113 6.28571 67.6799 6.28571H18.9352C18.8031 6.28571 18.6765 6.33833 18.5833 6.43191L6.48129 18.5853C6.31055 18.7568 6.28825 19.0264 6.4285 19.2236L42.9024 70.5055C42.9693 70.5996 43.0278 70.6395 43.075 70.6631C43.1327 70.6921 43.2118 70.714 43.3051 70.7143C43.3984 70.7146 43.4781 70.6932 43.5366 70.6644C43.5829 70.6416 43.6384 70.6043 43.7015 70.5196L80.1943 19.2117C80.325 19.0167 80.3008 18.7548 80.135 18.5869L80.1333 18.5853L68.0318 6.43192L68.0303 6.43044ZM85.338 22.8247L48.8037 74.1909C46.0881 77.9504 40.474 77.9363 37.7801 74.1487L1.30624 22.8667C-0.609234 20.1736 -0.304714 16.4919 2.02721 14.1501L14.1292 1.99667C15.402 0.718518 17.1314 0 18.9352 0H67.6799C69.4743 0 71.1951 0.711071 72.466 1.9768L72.4859 1.99675L84.5875 14.1501L84.6067 14.1695C86.909 16.5 87.2154 20.1429 85.338 22.8247Z" fill="#53B753"/>
<path d="M14.1292 1.99667C15.402 0.718518 17.1314 0 18.9352 0H34.9677L53.2688 18.2042H86.5242C86.6962 19.7918 86.3096 21.4369 85.338 22.8247L48.8037 74.1909C46.0881 77.9504 40.474 77.9363 37.7801 74.1487L1.30624 22.8667C-0.609234 20.1736 -0.304714 16.4919 2.02721 14.1501L14.1292 1.99667Z" fill="#53B753"/>
<path fill-rule="evenodd" clip-rule="evenodd" d="M171.171 34.2346V76.7005H150.855V34.2346H144.12V17.2857H150.855V0H171.171V17.2857H181.39H182.732H201.707V49.7244C201.707 56.8332 205.149 60.3877 212.033 60.3877C218.918 60.3877 222.36 56.8332 222.36 49.7244V17.2857H242.676V53.653C242.676 61.4353 240.094 67.272 234.931 71.1631C229.843 75.0543 222.21 76.9999 212.033 76.9999C201.856 76.9999 194.186 75.0543 189.023 71.1631C183.935 67.272 181.39 61.4353 181.39 53.653V34.2346H171.171ZM136.997 32.102C133.255 30.1564 129.589 29.1836 125.997 29.1836C124.126 29.1836 122.592 29.5578 121.395 30.3061C120.272 31.0544 119.711 32.0646 119.711 33.3367C119.711 34.0102 119.786 34.5714 119.936 35.0204C120.16 35.3945 120.572 35.7687 121.17 36.1428C121.844 36.5169 122.779 36.8537 123.976 37.153C125.248 37.4523 126.895 37.8265 128.915 38.2755C134.527 39.3979 138.718 41.4183 141.487 44.3367C144.255 47.1802 145.64 50.8469 145.64 55.3366C145.64 58.704 144.966 61.7346 143.619 64.4285C142.272 67.1223 140.401 69.4046 138.007 71.2754C135.612 73.0713 132.731 74.4557 129.364 75.4285C125.997 76.4761 122.293 76.9999 118.252 76.9999C110.47 76.9999 102.8 74.7924 95.2417 70.3774L102.65 56.0101C108.337 59.9013 113.725 61.8468 118.813 61.8468C120.684 61.8468 122.218 61.4353 123.415 60.6122C124.612 59.789 125.211 58.7414 125.211 57.4693C125.211 56.721 125.099 56.1224 124.874 55.6734C124.725 55.1496 124.35 54.7006 123.752 54.3264C123.153 53.8775 122.255 53.5033 121.058 53.204C119.936 52.8298 118.439 52.4557 116.568 52.0815C110.282 50.8094 105.868 48.9387 103.323 46.4693C100.854 43.9251 99.6192 40.4455 99.6192 36.0306C99.6192 32.8129 100.218 29.9319 101.415 27.3877C102.612 24.7687 104.334 22.5612 106.578 20.7653C108.823 18.9694 111.517 17.585 114.66 16.6122C117.878 15.6394 121.432 15.153 125.323 15.153C131.684 15.153 137.857 16.3877 143.844 18.8571L136.997 32.102ZM272.494 18.708C256.738 18.708 243.965 31.6902 243.965 47.7045C243.965 63.7189 256.738 76.7011 272.494 76.7011C277.403 76.7011 282.022 75.4408 286.056 73.2213V76.7006H304.763V0.000472735H286.056V22.1878C282.022 19.9682 277.403 18.708 272.494 18.708ZM275.768 57.9936C281.407 57.9936 285.987 53.4562 286.056 47.8327V47.5764C285.987 41.9529 281.407 37.4155 275.768 37.4155C270.085 37.4155 265.479 42.022 265.479 47.7046C265.479 53.3871 270.085 57.9936 275.768 57.9936Z" fill="#3F3636"/>
<path fill-rule="evenodd" clip-rule="evenodd" d="M326.827 0C318.583 0 311.899 6.8891 311.899 15.3872V51.5899H361.949V0H326.827ZM353.502 20.5548V43.7358H345.374V20.5548H353.502ZM344.835 11.653C344.835 11.0204 344.954 10.4329 345.194 9.89068C345.434 9.31831 345.763 8.82126 346.182 8.39951C346.601 7.97776 347.08 7.64639 347.619 7.40539C348.188 7.1644 348.787 7.0439 349.415 7.0439C350.044 7.0439 350.628 7.1644 351.167 7.40539C351.735 7.64639 352.229 7.97776 352.648 8.39951C353.068 8.82126 353.397 9.31831 353.636 9.89068C353.876 10.4329 353.996 11.0204 353.996 11.653C353.996 12.2856 353.876 12.8881 353.636 13.4605C353.397 14.0027 353.068 14.4847 352.648 14.9064C352.229 15.3282 351.735 15.6596 351.167 15.9006C350.628 16.1416 350.044 16.2621 349.415 16.2621C348.787 16.2621 348.188 16.1416 347.619 15.9006C347.08 15.6596 346.601 15.3282 346.182 14.9064C345.763 14.4847 345.434 14.0027 345.194 13.4605C344.954 12.8881 344.835 12.2856 344.835 11.653ZM336.461 43.6176H343.899V20.5607H336.461V21.942C334.858 21.0609 333.023 20.5607 331.073 20.5607C324.808 20.5607 319.73 25.7222 319.73 32.0892C319.73 38.4562 324.808 43.6176 331.073 43.6176C333.023 43.6176 334.858 43.1174 336.461 42.2364V43.6176ZM336.461 31.8358V32.3405C336.331 34.4823 334.552 36.1789 332.378 36.1789C330.119 36.1789 328.287 34.3474 328.287 32.0882C328.287 29.8289 330.119 27.9974 332.378 27.9974C334.552 27.9974 336.331 29.6941 336.461 31.8358Z" fill="#53B753"/>
</svg>
