<svg width="400" height="73" viewBox="0 0 400 73" fill="none" xmlns="http://www.w3.org/2000/svg">
<path fill-rule="evenodd" clip-rule="evenodd" d="M0 20.6907C0 32.1177 11.5792 41.3812 25.8629 41.3813V31.0356C17.2929 31.0353 10.3457 26.4037 10.3457 20.6903C10.3457 14.9767 17.2933 10.3449 25.8637 10.3449C34.434 10.3449 41.3817 14.9767 41.3817 20.6903V20.6906H51.7267C51.7266 9.26349 40.1472 0 25.8633 0C11.5794 0 0 9.26353 0 20.6907ZM0 51.727V51.7266H10.3457C10.3457 57.4402 17.2934 62.0719 25.8637 62.0719C34.434 62.0719 41.3817 57.4402 41.3817 51.7266C41.3817 46.013 34.434 41.3813 25.8637 41.3813H25.8632V31.0363H25.8633C40.1473 31.0363 51.7267 40.2998 51.7267 51.727C51.7267 63.1541 40.1473 72.4176 25.8633 72.4176C11.5794 72.4176 0 63.1541 0 51.727Z" fill="#3F3636"/>
<path fill-rule="evenodd" clip-rule="evenodd" d="M108.625 0.000488281H56.8987V10.3458H77.5901V72.4174H87.9354V10.3458H108.625V0.000488281Z" fill="#3F3636"/>
<path fill-rule="evenodd" clip-rule="evenodd" d="M113.799 0.000488281H124.144V35.1729L124.145 35.1728V51.6861L124.144 51.7268C124.144 57.4403 131.092 62.0721 139.662 62.0721C148.233 62.0721 155.18 57.4405 155.18 51.7272H155.179V0.000488281H165.525V51.5756C165.525 51.6261 165.525 51.6766 165.525 51.7271C165.525 63.1543 153.946 72.4178 139.662 72.4178C125.378 72.4178 113.799 63.1543 113.799 51.7271L113.799 51.6381V0.000488281Z" fill="#3F3636"/>
<path fill-rule="evenodd" clip-rule="evenodd" d="M196.561 0C210.844 0 222.424 9.26349 222.424 20.6906H222.424V51.7266H222.424V51.7271C222.424 63.1542 210.845 72.4178 196.561 72.4178L196.561 72.4178H170.697V51.7811C170.697 51.7631 170.697 51.7451 170.697 51.7271C170.697 51.7091 170.697 51.6911 170.697 51.673V20.7447C170.697 20.7267 170.697 20.7087 170.697 20.6907C170.697 20.6726 170.697 20.6546 170.697 20.6366V0.000511169H196.377C196.438 0.000170577 196.499 0 196.561 0ZM212.079 20.6903V20.6906H212.079V51.7266H212.079V51.7267C212.079 57.4403 205.131 62.072 196.561 62.0721V62.0722H181.043V51.7617L181.043 51.7267L181.043 51.6918V20.7252L181.043 20.6903L181.043 20.6553V10.3456H196.39C196.447 10.3451 196.504 10.3449 196.561 10.3449C205.131 10.3449 212.079 14.9767 212.079 20.6903Z" fill="#3F3636"/>
<path fill-rule="evenodd" clip-rule="evenodd" d="M248.288 0.000488281H253.461L274.151 72.4178H268.979L262.944 51.7268H238.805L232.77 72.4178H227.597L248.288 0.000488281ZM250.874 10.3458L261.435 46.5542H240.314L250.874 10.3458ZM289.669 0.000488281H284.497V72.4178H289.669V0.000488281Z" fill="#53B753"/>
<path d="M331.876 1.87833C333.073 0.676242 334.7 0.000488281 336.396 0.000488281H382.24C383.927 0.000488281 385.546 0.669239 386.741 1.85963C386.747 1.86587 386.754 1.87213 386.76 1.8784L398.141 13.3084C398.147 13.3145 398.153 13.3206 398.159 13.3266C400.324 15.5185 400.613 18.9445 398.847 21.4668L364.487 69.7758C361.933 73.3116 356.653 73.2983 354.12 69.7361L319.816 21.5063C318.015 18.9734 318.301 15.5109 320.495 13.3084L331.876 1.87833Z" fill="#7FFC68"/>
<path fill-rule="evenodd" clip-rule="evenodd" d="M382.569 6.04821C382.482 5.96107 382.363 5.9121 382.24 5.9121H336.396C336.272 5.9121 336.153 5.96158 336.065 6.04959L324.684 17.4797C324.523 17.641 324.502 17.8945 324.634 18.0799L358.937 66.3098C359 66.3983 359.055 66.4357 359.099 66.458C359.154 66.4852 359.228 66.5058 359.316 66.5061C359.403 66.5064 359.478 66.4863 359.533 66.4592C359.577 66.4378 359.629 66.4026 359.688 66.3231L394.009 18.0687C394.132 17.8854 394.11 17.6391 393.954 17.4812L393.952 17.4796L382.571 6.0496L382.569 6.04821ZM398.847 21.4668L364.487 69.7758C361.933 73.3116 356.653 73.2983 354.12 69.7361L319.816 21.5063C318.015 18.9734 318.301 15.5109 320.495 13.3084L331.876 1.87833C333.073 0.676242 334.7 0.000488281 336.396 0.000488281H382.24C383.927 0.000488281 385.546 0.669239 386.741 1.85963L386.76 1.8784L398.141 13.3084L398.159 13.3266C400.324 15.5185 400.613 18.9445 398.847 21.4668Z" fill="#53B753"/>
<path d="M331.876 1.87833C333.073 0.676242 334.7 0.000488281 336.396 0.000488281H351.475L368.686 17.1213H399.963C400.124 18.6143 399.761 20.1615 398.847 21.4668L364.487 69.7758C361.933 73.3116 356.653 73.2983 354.12 69.7361L319.816 21.5063C318.015 18.9734 318.301 15.5109 320.495 13.3084L331.876 1.87833Z" fill="#53B753"/>
</svg>
