<svg width="14" height="10" viewBox="0 0 14 10" fill="none" xmlns="http://www.w3.org/2000/svg">
<path d="M10.1291 4.08812L8.72371 2.68278C8.37913 2.3382 8.37913 1.77953 8.72371 1.43495C9.0683 1.09037 9.62697 1.09037 9.97155 1.43495L12.8832 4.34657C13.2277 4.69115 13.2277 5.24982 12.8832 5.5944L9.97155 8.50602C9.62697 8.8506 9.0683 8.8506 8.72371 8.50602C8.37913 8.16144 8.37913 7.60276 8.72371 7.25818L10.1291 5.85283L4.68355 5.85283C4.19624 5.85283 3.8012 5.45779 3.80119 4.97048C3.80119 4.48317 4.19624 4.08812 4.68355 4.08812H10.1291Z" fill="#1C1A1A" fill-opacity="0.5"/>
<path fill-rule="evenodd" clip-rule="evenodd" d="M2.62408 0H7.32996V1.76471H2.62408V8.23535H7.32996V10.0001H0.859375V8.82353V8.23535V1.76471V0H2.62408Z" fill="#1C1A1A" fill-opacity="0.5"/>
</svg>
