<svg width="141" height="30" viewBox="0 0 141 30" fill="none" xmlns="http://www.w3.org/2000/svg">
<path fill-rule="evenodd" clip-rule="evenodd" d="M66.6707 13.3382V29.8833H58.7552V13.3382H56.1313V6.73468H58.7552V0H66.6707V6.73468H70.6523H71.175H78.5677V19.3731C78.5677 22.1428 79.9089 23.5277 82.5911 23.5277C85.2733 23.5277 86.6144 22.1428 86.6144 19.3731V6.73468H94.5298V20.9038C94.5298 23.9358 93.524 26.2099 91.5123 27.7259C89.5298 29.2419 86.5561 29.9999 82.5911 29.9999C78.6261 29.9999 75.6377 29.2419 73.6261 27.7259C71.6436 26.2099 70.6523 23.9358 70.6523 20.9038V13.3382H66.6707ZM53.3561 12.5073C51.8984 11.7493 50.4698 11.3702 49.0704 11.3702C48.3415 11.3702 47.7438 11.516 47.2774 11.8076C46.8401 12.0991 46.6214 12.4927 46.6214 12.9883C46.6214 13.2507 46.6506 13.4694 46.7089 13.6443C46.7963 13.7901 46.9567 13.9358 47.1899 14.0816C47.4523 14.2274 47.8167 14.3586 48.2832 14.4752C48.7788 14.5918 49.4202 14.7376 50.2074 14.9125C52.394 15.3498 54.0266 16.137 55.1054 17.274C56.1841 18.3819 56.7234 19.8105 56.7234 21.5597C56.7234 22.8717 56.461 24.0524 55.9363 25.102C55.4115 26.1516 54.6826 27.0408 53.7497 27.7696C52.8167 28.4693 51.6943 29.0087 50.3823 29.3877C49.0704 29.7959 47.6272 29.9999 46.0529 29.9999C43.0208 29.9999 40.0325 29.1399 37.0879 27.4198L39.9742 21.8221C42.1899 23.3382 44.289 24.0962 46.2715 24.0962C47.0004 24.0962 47.5981 23.9358 48.0645 23.6151C48.531 23.2944 48.7643 22.8863 48.7643 22.3906C48.7643 22.0991 48.7205 21.8659 48.6331 21.6909C48.5747 21.4868 48.429 21.3119 48.1957 21.1661C47.9625 20.9912 47.6127 20.8454 47.1462 20.7288C46.7089 20.5831 46.1258 20.4373 45.3969 20.2915C42.9479 19.7959 41.2278 19.067 40.2366 18.1049C39.2745 17.1137 38.7934 15.758 38.7934 14.0379C38.7934 12.7842 39.0267 11.6618 39.4931 10.6705C39.9596 9.65013 40.6302 8.79007 41.5048 8.09037C42.3794 7.39066 43.429 6.8513 44.6535 6.47229C45.9071 6.09329 47.292 5.90378 48.808 5.90378C51.2861 5.90378 53.6914 6.38483 56.0237 7.34693L53.3561 12.5073ZM106.147 7.2888C100.009 7.2888 95.0322 12.3468 95.0322 18.5862C95.0322 24.8255 100.009 29.8835 106.147 29.8835C108.06 29.8835 109.86 29.3925 111.431 28.5278V29.8832H118.72V7.71513e-05H111.431V8.6445C109.86 7.77978 108.06 7.2888 106.147 7.2888ZM107.423 22.595C109.615 22.595 111.396 20.8353 111.431 18.6513V18.5212C111.396 16.3372 109.615 14.5775 107.423 14.5775C105.209 14.5775 103.414 16.3723 103.414 18.5863C103.414 20.8002 105.209 22.595 107.423 22.595Z" fill="#53B753"/>
<path fill-rule="evenodd" clip-rule="evenodd" d="M127.316 0C124.103 0 121.5 2.68406 121.5 5.99503V20.1H140.999V0H127.316ZM137.708 8.00839V17.0399H134.542V8.00839H137.708ZM134.332 4.54013C134.332 4.29366 134.378 4.06479 134.472 3.85352C134.565 3.63052 134.693 3.43686 134.857 3.27254C135.02 3.10823 135.206 2.97912 135.416 2.88523C135.638 2.79133 135.871 2.74438 136.116 2.74438C136.361 2.74438 136.589 2.79133 136.799 2.88523C137.02 2.97912 137.213 3.10823 137.376 3.27254C137.539 3.43686 137.668 3.63052 137.761 3.85352C137.854 4.06479 137.901 4.29366 137.901 4.54013C137.901 4.78661 137.854 5.02134 137.761 5.24434C137.668 5.45561 137.539 5.6434 137.376 5.80772C137.213 5.97203 137.02 6.10114 136.799 6.19503C136.589 6.28893 136.361 6.33588 136.116 6.33588C135.871 6.33588 135.638 6.28893 135.416 6.19503C135.206 6.10114 135.02 5.97203 134.857 5.80772C134.693 5.6434 134.565 5.45561 134.472 5.24434C134.378 5.02134 134.332 4.78661 134.332 4.54013ZM131.069 16.9938H133.967V8.01062H131.069V8.54864C130.445 8.20541 129.73 8.01055 128.97 8.01055C126.529 8.01055 124.551 10.0215 124.551 12.5022C124.551 14.9828 126.529 16.9938 128.97 16.9938C129.73 16.9938 130.445 16.7989 131.069 16.4557V16.9938ZM131.069 12.3989V12.6046C131.016 13.4369 130.324 14.0955 129.479 14.0955C128.598 14.0955 127.885 13.382 127.885 12.5017C127.885 11.6215 128.598 10.9079 129.479 10.9079C130.324 10.9079 131.016 11.5666 131.069 12.3989Z" fill="#53B753"/>
<path fill-rule="evenodd" clip-rule="evenodd" d="M26.4855 2.50537C26.4493 2.46927 26.4002 2.44898 26.349 2.44898H7.35756C7.30611 2.44898 7.25677 2.46948 7.22046 2.50594L2.50539 7.24104C2.43887 7.30785 2.43018 7.41288 2.48483 7.4897L16.6954 27.4697C16.7215 27.5063 16.7443 27.5219 16.7627 27.5311C16.7852 27.5424 16.816 27.5509 16.8523 27.551C16.8887 27.5511 16.9197 27.5428 16.9425 27.5316C16.9606 27.5227 16.9822 27.5082 17.0068 27.4752L31.2247 7.48506C31.2757 7.40912 31.2663 7.30707 31.2016 7.24166L31.201 7.24101L26.4861 2.50594L26.4855 2.50537ZM33.2288 8.89275L18.9947 28.9056C17.9366 30.3703 15.7493 30.3648 14.6997 28.8891L0.489141 8.90912C-0.257149 7.85984 -0.138505 6.42543 0.770036 5.51303L5.4851 0.777926C5.98098 0.279943 6.6548 1.16776e-06 7.35756 1.16776e-06H26.349C27.0481 1.16776e-06 27.7186 0.277042 28.2137 0.770182L28.2215 0.777954L32.9364 5.51302L32.9439 5.52057C33.8409 6.42859 33.9602 7.84788 33.2288 8.89275Z" fill="#53B753"/>
<path d="M5.4851 0.777926C5.98098 0.279943 6.6548 1.16776e-06 7.35756 1.16776e-06L13.604 0L20.7343 7.09256H33.6909C33.758 7.71108 33.6073 8.35203 33.2288 8.89275L18.9947 28.9056C17.9366 30.3703 15.7493 30.3648 14.6997 28.8891L0.489141 8.90912C-0.257149 7.85984 -0.138505 6.42543 0.770036 5.51303L5.4851 0.777926Z" fill="#53B753"/>
</svg>
