<svg width="152" height="28" viewBox="0 0 152 28" fill="none" xmlns="http://www.w3.org/2000/svg">
<path fill-rule="evenodd" clip-rule="evenodd" d="M0 8.10703C0 12.4464 4.39713 15.9641 9.8213 15.9642V12.0356C6.56689 12.0355 3.92872 10.2766 3.92872 8.107C3.92872 5.93731 6.56704 4.17842 9.82158 4.17842C13.0761 4.17842 15.7144 5.93731 15.7144 8.107L19.6429 8.107C19.6429 3.76763 15.2457 0.249878 9.82144 0.249878C4.39721 0.249878 0 3.76764 0 8.10703ZM0 19.8927V19.8926H3.92872C3.92872 22.0623 6.56704 23.8212 9.82158 23.8212C13.0761 23.8212 15.7144 22.0623 15.7144 19.8926C15.7144 17.7229 13.0761 15.9641 9.82158 15.9641H9.82137V12.0355H9.82144C15.2457 12.0355 19.6429 15.5533 19.6429 19.8927C19.6429 24.232 15.2457 27.7498 9.82144 27.7498C4.39721 27.7498 0 24.232 0 19.8927Z" fill="#53B753"/>
<path fill-rule="evenodd" clip-rule="evenodd" d="M41.2498 0.249878H21.6069V4.17845H29.4644V27.7498H33.393V4.17845H41.2498V0.249878Z" fill="#53B753"/>
<path fill-rule="evenodd" clip-rule="evenodd" d="M58.9284 0.249878H62.857V19.8332C62.8572 19.8531 62.8573 19.873 62.8573 19.893C62.8573 24.2324 58.4601 27.7501 53.0359 27.7501C47.6116 27.7501 43.2144 24.2324 43.2144 19.893L43.2144 19.8928H43.2144V0.249912H47.1429V13.6067L47.1431 13.6066V19.8929H47.1432V19.8929C47.1432 22.0626 49.7815 23.8215 53.036 23.8215C56.2906 23.8215 58.9289 22.0626 58.9289 19.8929L58.9289 19.8928H58.9284V0.249878Z" fill="#53B753"/>
<path fill-rule="evenodd" clip-rule="evenodd" d="M74.6429 0.249878H64.8214V8.10703V19.8928V27.7499H74.6063C74.6184 27.7499 74.6306 27.75 74.6429 27.75C80.0671 27.75 84.4643 24.2322 84.4643 19.8928V19.8926H84.4644V8.10691H84.4643C84.4642 3.76758 80.067 0.249878 74.6429 0.249878ZM74.6431 4.17842C77.8976 4.17842 80.5359 5.93726 80.5359 8.10691H80.5359V19.8926H80.5359V19.8928C80.5359 22.0625 77.8976 23.8214 74.6431 23.8214L74.5874 23.8212H68.7502V19.8928V8.107V4.17832H74.6431V4.17842Z" fill="#53B753"/>
<path fill-rule="evenodd" clip-rule="evenodd" d="M110 0.249878H108.036V27.7499H110V0.249878ZM94.286 0.249912H96.2503L104.107 27.7499H102.143L99.8514 19.8927H90.6848L88.3931 27.7499H86.4288L94.286 0.249912ZM95.2681 4.17849L99.2785 17.9284H91.2577L95.2681 4.17849Z" fill="#53B753"/>
<path fill-rule="evenodd" clip-rule="evenodd" d="M145.278 2.54646C145.245 2.51337 145.2 2.49478 145.153 2.49478H127.744C127.697 2.49478 127.652 2.51357 127.619 2.54699L123.297 6.8875C123.236 6.94874 123.228 7.04501 123.278 7.11544L136.304 25.4304C136.328 25.464 136.349 25.4783 136.366 25.4867C136.386 25.4971 136.415 25.5049 136.448 25.505C136.481 25.5051 136.51 25.4975 136.531 25.4872C136.547 25.479 136.567 25.4657 136.59 25.4355L149.623 7.11119C149.669 7.04157 149.661 6.94802 149.602 6.88806L149.601 6.88747L145.279 2.54699L145.278 2.54646ZM151.46 8.40156L138.412 26.7466C137.442 28.0893 135.437 28.0843 134.475 26.7315L121.448 8.41657C120.764 7.45473 120.873 6.13986 121.706 5.30349L126.028 0.962977C126.483 0.506492 127.1 0.249879 127.744 0.249879H145.153C145.794 0.249879 146.409 0.503833 146.863 0.955878L146.87 0.963003L151.192 5.30348L151.199 5.3104C152.021 6.14275 152.13 7.44377 151.46 8.40156Z" fill="#53B753"/>
<path d="M126.028 0.962977C126.483 0.506492 127.1 0.249879 127.744 0.249879L133.47 0.249878L140.006 6.75139H151.883C151.945 7.31837 151.807 7.90591 151.46 8.40156L138.412 26.7466C137.442 28.0893 135.437 28.0843 134.475 26.7315L121.448 8.41657C120.764 7.45473 120.873 6.13986 121.706 5.30349L126.028 0.962977Z" fill="#53B753"/>
</svg>
