<svg width="40" height="41" viewBox="0 0 40 41" fill="none" xmlns="http://www.w3.org/2000/svg">
<rect y="0.5" width="40" height="40" rx="20" fill="#53B753"/>
<path fill-rule="evenodd" clip-rule="evenodd" d="M18.5 17.682L16.1109 20.0711C15.5251 20.6568 14.5754 20.6568 13.9896 20.0711C13.4038 19.4853 13.4038 18.5355 13.9896 17.9497L18.9393 13C19.5251 12.4142 20.4749 12.4142 21.0607 13L26.0104 17.9497C26.5962 18.5355 26.5962 19.4853 26.0104 20.0711C25.4246 20.6568 24.4749 20.6568 23.8891 20.0711L21.5 17.682V26.9393C21.5 27.7678 20.8284 28.4393 20 28.4393C19.1716 28.4393 18.5 27.7678 18.5 26.9393V17.682Z" fill="#F2F2F2"/>
</svg>
