<svg width="10" height="12" viewBox="0 0 10 12" fill="none" xmlns="http://www.w3.org/2000/svg">
<g id="Group 162">
<path id="Union" d="M4.1085 2.94345L2.73539 4.31655C2.39872 4.65323 1.85286 4.65323 1.51618 4.31655C1.1795 3.97988 1.1795 3.43402 1.51618 3.09734L4.36101 0.252507C4.69769 -0.0841692 5.24355 -0.0841691 5.58022 0.252507L8.42506 3.09734C8.76173 3.43402 8.76173 3.97988 8.42506 4.31655C8.08838 4.65323 7.54252 4.65323 7.20584 4.31655L5.83272 2.94343V8.26405C5.83272 8.74018 5.44674 9.12616 4.97061 9.12616C4.49448 9.12616 4.1085 8.74018 4.1085 8.26405V2.94345Z" fill="#F9F9F9"/>
<rect id="Rectangle 140" x="0.114258" y="12" width="6.32217" height="1.72423" transform="rotate(-90 0.114258 12)" fill="#F9F9F9"/>
<rect id="Rectangle 142" x="0.114258" y="12" width="1.72423" height="8.62114" transform="rotate(-90 0.114258 12)" fill="#F9F9F9"/>
<rect id="Rectangle 141" x="8.16113" y="12" width="6.32217" height="1.72423" transform="rotate(-90 8.16113 12)" fill="#F9F9F9"/>
</g>
</svg>
