<svg width="19" height="17" viewBox="0 0 19 17" fill="none" xmlns="http://www.w3.org/2000/svg">
<path id="Union" fill-rule="evenodd" clip-rule="evenodd" d="M10.5885 16.3798L18.5232 5.03922C18.931 4.44713 18.8644 3.64286 18.3644 3.12832L18.3602 3.12404L15.7319 0.44084L15.7276 0.436436C15.4516 0.15699 15.0779 0 14.6881 0H4.10144C3.70969 0 3.33407 0.158634 3.05765 0.440824L0.429253 3.12405C-0.0772089 3.64108 -0.143346 4.45391 0.272669 5.0485L8.1943 16.3705C8.77939 17.2067 9.99868 17.2098 10.5885 16.3798ZM17.3105 4.01912H11.5582L8.95592 1.38776L14.6881 1.38776H4.10144C4.07276 1.38776 4.04525 1.39937 4.02502 1.42003L1.39662 4.10326C1.35954 4.14111 1.3547 4.20063 1.38516 4.24416L9.30679 15.5662C9.32133 15.5869 9.33402 15.5957 9.34427 15.6009C9.35682 15.6073 9.37399 15.6122 9.39425 15.6122C9.41452 15.6123 9.43183 15.6076 9.44453 15.6012C9.45458 15.5962 9.46664 15.588 9.48034 15.5693L17.4061 4.24154C17.4345 4.1985 17.4292 4.14067 17.3932 4.10361L17.3929 4.10324L17.3105 4.01912Z" fill="white"/>
</svg>
